<?xml version="1.0" standalone="no"?>
<!DOCTYPE svg PUBLIC "-//W3C//DTD SVG 20010904//EN"
 "http://www.w3.org/TR/2001/REC-SVG-20010904/DTD/svg10.dtd">
<svg version="1.0" xmlns="http://www.w3.org/2000/svg"
 width="512.000000pt" height="512.000000pt" viewBox="0 0 512.000000 512.000000"
 preserveAspectRatio="xMidYMid meet">
<metadata>
Created by potrace 1.15, written by Peter Selinger 2001-2017
</metadata>
<g transform="translate(0.000000,512.000000) scale(0.100000,-0.100000)"
fill="#000000" stroke="none">
<path d="M850 3721 c-72 -26 -133 -89 -154 -161 -14 -46 -16 -136 -16 -659 0
-382 4 -620 10 -643 18 -65 70 -130 129 -160 49 -26 62 -28 167 -28 l114 0 0
-170 c0 -111 4 -170 10 -170 6 0 112 77 235 170 l224 170 180 0 180 0 3 323
c3 314 4 323 26 369 13 27 42 64 65 83 75 64 83 65 654 65 l513 0 0 298 c0
338 -6 375 -67 443 -20 22 -55 50 -77 62 l-41 22 -1050 2 c-1010 2 -1052 2
-1105 -16z"/>
</g>
</svg>
